<svg xmlns="http://www.w3.org/2000/svg" viewBox="0 0 273.5 487.5"><defs><style>  .cls-1{fill:white;stroke:white;}</style></defs><title>  Asset 1</title><g data-name="Layer 2"><g data-name="Layer 2"><polygon class="cls-1" points="134.9 8.8 141 5.3 148.8 1.3 153 0.5 156.5 1.3 160.2 3.5 164.8 6.7 168.5 9.9 170.4 14.9 172.2 20.3 175.2 23.5 177 25.6 177.3 29.9 179.4 33.3 182.4 38.9 185.6 41.6 194.4 50.1 201.8 57.1 204.5 59.5 225.3 70.2 220.3 71.2 228 75 230.9 76.6 227.5 79 232.8 79.5 231.5 81.6 234.9 82.2 237.9 84.8 241.9 89.9 246.4 94.4 248.5 97.1 244.3 97.1 253.1 102.7 248.8 102.2 250.2 103 253.3 105.1 249.3 105.1 252.5 108.3 249.3 109.1 251.5 112.8 247.7 112.8 253.9 120.9 247.7 118.5 253.9 124.9 248 122.5 251.5 131.3 252 140.9 249.3 142.5 252.3 147.3 249.6 147 250.4 151 251.7 153.4 257.1 159.8 253.1 159.3 257.1 164.3 254.9 165.7 260 171.8 256 171 259.8 176.1 261.6 180.4 263.5 183.8 261.1 185.7 262.4 188.9 258.9 188.6 262.7 193.4 257.9 191.3 267.8 207.6 263.8 206.5 268.8 212.6 270.4 215.8 264.3 211.3 268.3 217.4 264.8 215.5 270.2 221.9 266.7 221 270.4 225.6 266.9 223.5 269.9 229.1 269 231.1 272.1 234.3 267.1 232 272.1 240.1 268.8 238.4 271.1 243.3 268.5 241.3 269.9 245.4 267.7 245.4 270.9 252.1 268.6 250.8 271.2 255.9 269.3 256.5 270.8 260.5 268.3 258.5 269.3 263.6 268 265.2 270.2 270 268.5 269.6 269.2 271.9 266.9 270.6 269.3 278.9 266.3 276 268.5 283.4 265.3 280.5 267.7 287.3 264.7 283.7 267 293 264.7 290.3 265.4 297.1 263.7 292.3 263.5 302.2 262.2 294.8 262.3 305.4 260.3 300.9 259.7 306.4 258.8 315.2 257.4 312.7 255.6 317.4 250.1 327 242.8 334.7 236.1 337.9 228.2 339.7 221 338.5 220.5 337.2 221.8 333.7 224.7 330.2 221.3 330.2 218.5 327.4 220.8 324.2 226.3 322.9 227.5 321 229.3 319.1 233.5 319.3 236.3 317.5 241.7 315.6 245.9 312.6 248.2 309.1 247.3 303.8 247 299.9 245.7 297.5 243.7 295.6 241.1 295.4 238 296.4 235.2 299.7 233.3 301.9 231.6 303.2 232.2 306.4 230.7 312.4 226.8 317.4 220.1 318.8 219.1 315 219.4 307.5 218.5 300.7 220.8 295.1 225.8 290.3 229.4 286.2 231.2 284 233.6 279.5 229.1 281.8 236.4 275.7 232.5 277.3 236 273.2 232 273.1 235.7 269.6 234.4 269.1 234.8 266.4 236 264.2 232.8 264.2 234.5 261 230.1 260.4 231.7 257.8 230 258.1 230.4 255.7 228.4 256.3 230.1 253 228.2 253.7 228.4 251.5 226.8 251.8 228.1 249 227.8 246.5 226.3 249 225.5 247 224.3 246.7 223.9 243.2 223.9 240.9 222 241.9 222 238.7 220.2 239.8 221.4 236.3 219.1 238.4 219.5 234.7 217.8 235.3 219.8 232.1 217.6 232.1 217.8 229.5 215.6 229.9 215.9 226.6 214.7 225.3 215.7 220.5 214.3 220.2 216 216.4 213.7 218 215.6 212.9 216.2 207.8 214.5 208.5 216.3 202.1 215 199.9 213.1 200.9 214.3 196.4 213.4 193.8 216.3 185.5 213.8 188.3 213.8 183.9 212.7 183.5 214.1 178.9 212.2 179.7 215 174.1 212.7 175 211.9 171.8 212.5 167.3 211.6 161 210.2 163.5 209.6 157.8 207.6 160 207.7 163.9 207.4 167.1 205.7 166.1 206.7 171.2 205.5 172.7 207.3 177.2 204.2 173.5 205.2 181.9 203 178.2 204.1 184 202.6 186.7 201.4 191.5 202 196 203.6 207.5 200.6 206.6 202.5 211.1 202.3 214.5 202.9 221.3 204.9 231 203.9 233.4 206.7 236.2 206.7 238.5 203.8 237.7 206.4 242 206.1 245.7 207.7 247.4 207.6 248.7 205.5 248.7 205.8 253 209.3 260.7 204.3 255.7 208.9 265.2 204.2 261.7 209.6 269 204.3 264.2 204.8 267.7 207.6 272 204.5 270.7 209.3 276.3 205.2 274.8 208.6 279.3 204.3 276.3 206.7 282 206.1 283.4 207.1 286.6 205.2 285.2 207 291.1 204.9 289.1 205.8 294.8 203.8 292.7 205.8 301.6 202.5 299.6 203.8 306.3 201.4 304.7 207 318.8 203.8 315.2 206.2 324.6 204.3 322.8 207.3 328.9 203.8 326 206.4 332.8 203.9 330.5 205.4 337.2 203 335 202.6 338.5 203.8 343.9 203 348.4 207.1 356.3 205.5 356.7 208.9 363.1 207 363.5 208.6 371.9 209.2 376.2 207.3 377 206.4 385.7 204.3 384.4 203 392.3 201.1 392 200 395.8 197.8 398.2 195.9 397.2 194.3 407.4 192.1 404.5 191.7 414.1 192 417.8 194.4 421.7 192.1 423.3 194.4 428 192.1 428.2 197.9 434.5 193 433.1 198.4 439.3 202 442.5 206.8 443.8 204.9 445.3 209.6 445.7 208.1 447 210.2 448.8 211.3 450.7 211.2 452.6 217.6 455.1 223.6 457.4 228.1 462.5 229.7 464.7 228.4 466.6 225.8 466.9 221.4 468.6 212.8 472.1 206.2 474.9 198.5 474.9 191.1 472.7 186.6 469.6 180.5 469.3 177.7 468.2 172.4 459.6 169.2 455.5 165 453.4 159 452.3 156.4 449.4 155.2 443.3 158.6 437.9 156.7 437.6 157.9 434.7 155.7 434.5 159.2 430.7 158.7 427.1 159.8 424.7 158.5 424 158 418.8 158.2 417.3 161.1 415.3 159.5 413.5 164.1 411 162.1 409.7 164.1 406.8 161.7 406.5 162.4 403.9 162.7 400.1 160.8 399.7 163.6 392.4 161.9 393.1 160.5 391.7 159.8 388 160.9 384.8 159.2 385.4 159 383.1 157.4 381 157.4 378.4 154.5 376.8 155.8 371.7 153.8 375.2 153.9 370.7 153.9 368.9 150.4 371.9 154.2 364.7 151.5 363.5 154.4 358.4 153.4 355.7 159.9 346.1 160.5 342.3 160.2 339.5 158.5 339.1 158.7 335.1 157.6 335 157.6 331.8 156.6 328.9 156.6 324.8 158.9 319.7 158.7 316.8 155.4 320.9 155.4 317.5 156.7 311.5 157.9 305.1 156 307.9 155.7 302.4 156.3 298 154.2 299.7 154.2 296.7 152.8 297.3 153.9 293 152 294 152.6 289.5 151.2 289.8 151.9 286.3 150.6 284.4 150 281.1 150 276.9 148.1 277.9 148.4 274.5 149.1 271.3 149.1 268.8 147.1 270.3 148.5 265.6 146.4 265.8 148 258.5 147.1 256.9 146.9 253.4 149.1 247.9 145.8 251.8 148.3 245.2 147.1 242.2 142.6 244.9 141.4 249.3 141.5 252.8 138.8 249.2 139.5 257.8 138.3 258.8 138.8 261 136.7 261.8 137.2 264.6 135.9 265.5 135.9 267.4 134.4 268.1 134.4 275.7 132.5 277 133 279.9 130.5 279.9 129.6 284 127.9 282.2 127.9 287.9 126.3 290.3 125.5 286.9 124.8 294.9 122.6 290.3 122.8 297.1 121.3 298.4 124.4 307.9 121.1 306.7 122.8 313.6 122.5 317.4 121.4 319.4 122.2 321.1 120.9 323.2 120.9 325.8 120.7 328.6 120.7 332.4 121.1 336.2 125.2 338.1 120.4 339.5 123.9 341.1 125.5 343.4 124.8 344.6 126.4 348 126.1 350.3 128.4 352.3 128.7 355.4 126.3 355.4 130.6 361.7 127.4 361.2 130.6 364.7 129.2 365.9 131.2 368.8 128.9 368.8 129.9 373 127.9 374.2 127.9 377.1 129.3 380.2 127.3 380.6 128 382.3 126.8 382.9 126.8 386.9 124.8 385.4 125.7 388 123.6 388.6 124.8 391.1 122.8 391.1 123 396.2 120.7 395.3 122.3 400.3 120.6 400.6 120.6 401.9 119.3 402.7 119.3 405.2 118.5 408 119.7 410.5 117.5 410.3 118.1 412.8 116.8 414 117.8 416 115.6 417.3 117.8 419.4 117.2 420.8 116.6 424.9 117.7 429 115.9 429.4 116.9 431.7 116.9 437 119.8 441.6 119.7 445.3 121.4 452 121.4 458.4 117.8 462.8 113.6 463.9 110.5 465.8 106.9 472.7 102.6 477.6 98.1 479.7 94 479.4 92 483.8 87.8 485.9 80.5 487 73.6 486.4 69.7 484.5 68.3 481.9 66.1 483 62.3 481.4 59.2 479.4 57 480.4 54.4 478.8 51.1 479.1 48 476.9 46 476.6 43.9 474.9 43.9 470.9 45.4 469.6 49 469.2 52.8 467.4 58.9 464.5 62.4 464.2 66.4 460.3 73.5 456.1 70.3 456.2 75.8 453.6 73.6 453 78.6 449.2 81.7 446.7 78 447.8 82.7 444.9 80.9 443.7 82.4 441.9 83.8 440.2 83 438.4 86.8 435.4 84.4 434.7 87.1 430 85.5 428.8 86.5 426.3 87.2 422.6 84.6 422.6 85.9 419.2 84.1 417 84.4 413.8 83 413.8 84.3 411.3 80.4 410.8 84.6 408.4 81.5 408.3 82.8 405.4 81.1 404.9 82.4 402 79.9 401.9 80.6 397.5 78.9 397.2 79.8 393.4 76.7 393.6 78.2 391.1 75.4 391.1 75.7 389.5 75.8 386.1 77.4 383.4 73.4 384.7 73.6 380.4 71.2 382.5 71.9 378.1 72 374.2 70 376.4 70.2 372.4 68.6 371.7 69.1 368.5 66.8 368.8 67.5 364.6 67.5 362.2 65.3 362.8 69.7 355.4 66.9 355.5 67.7 352.3 66.5 350.1 68.6 348.4 66.8 348 69.9 344.6 72.6 340.5 70.2 339.9 72.5 337.5 70.4 336.7 72.3 335.4 70.2 335.3 73.9 331.9 72.8 330 75.1 325.1 72.9 325.1 76.1 321.1 73.6 321.3 76.4 317.7 72.8 319.3 72.9 313.3 74.4 306.4 73.9 304.1 75.4 300 76.9 295.8 72.5 299.9 77.1 290.3 74.5 290.5 75.8 287.8 73.4 288.5 75 284 73.4 283.7 76.6 280.8 74.2 280.8 76.4 276.7 74.8 274.4 76.9 269.6 75 269.1 77.9 265.6 76.4 263.9 80.4 260 76 260.4 81.4 255.7 77.6 256.3 81.7 252.2 79.6 251.5 83.4 248.6 80.8 248.4 83.4 244.2 81.4 243.5 85.2 239.8 83.8 237.2 87.3 233.3 84.7 233.4 88.1 228.6 86 228.6 89.4 221.9 87.1 222.2 90.3 218.4 90 216.5 92.3 212.3 92.3 207.1 95.2 198.9 96.4 189.6 96.1 186.2 92.3 190 94.2 184 92.2 183.6 95.7 177.5 91.4 182.1 90.3 177.5 93.3 172.1 91.3 170.2 90 173.7 91.4 165.2 86.2 169.8 89.2 158 87.3 155 86.8 150.1 86.5 145.4 85.7 152 83.7 149.5 83.8 155.9 80.9 155.6 80.5 158.2 78 158.1 76.6 165.4 75 160.7 74.2 168.4 71.5 164.5 70 174.1 68.7 170.5 66.8 177 64.3 179.8 64.2 194.8 61.8 198.2 60 200.2 58.1 200.6 55.9 208.8 55.1 204.4 53.3 210.1 51.1 209.5 48.4 214.6 45.4 214.9 45.4 218.6 43.8 218.9 43.6 221 41.7 221 39.8 224 39 227.9 36.8 228.2 35.2 231.8 35.5 234.9 36.1 237.4 37.2 239.3 40.1 242.3 43.6 245.5 44.8 248.4 44.8 252.5 44.8 257.2 45.2 260.7 45.4 265.6 43.8 268.4 40.3 268.8 37.2 266.7 34.6 259.2 33 254.9 30.4 253.4 26.4 254.6 23.5 258.8 22.9 264.3 22.9 269.3 24.3 271.2 29.1 274.8 34.6 277 37.5 277.7 39.3 278.3 39.8 279.9 41 280.6 43.1 280.8 45.2 281.4 46 283.6 46 285.2 48.7 286.6 49.9 288.9 48.4 291.4 45.4 293.2 43.3 294 46 295.8 48 298.7 48.2 301 44.4 302.9 38.8 304.8 33 303.5 27.8 300.2 20.2 294.5 13.6 287.5 7.9 279.6 7.6 275.4 5.9 276.9 6.8 269 5 272.2 4.4 265.2 2.5 265.2 4.6 261 2.8 258.9 3.4 256.3 2.4 255.9 2.7 247.9 0.5 245.5 0.5 239.8 2.3 232.8 6.5 223.1 6.8 212.6 8.2 209.8 9.5 204.1 10.3 201.5 10.3 198.9 13.6 196.3 13 193.7 17 189.1 16.1 186.8 18 183.6 17 181.4 23.1 173.5 25.3 170.8 23.7 170.3 26.1 167.7 24.5 166.6 29.4 163.1 28.3 161.6 31.2 159.7 32 156.4 29.8 155.2 34 149.7 31.1 149.7 33.6 147.3 35.6 142.8 34.5 141.6 37.1 139.3 35.5 138.7 38.5 136.4 37.1 135.7 42.3 128.5 38.8 129.3 44.8 122.3 43.2 121.5 44.9 119.6 43.3 119.2 44.8 117 42.9 117.3 46.8 110.5 43.1 113.4 47.1 107.8 42.8 108.4 48 103.9 44.7 104.8 50.9 96.6 45.2 98.4 50.2 93.6 49.6 91.4 53.1 87.3 59.4 82.3 61.3 78.8 67.4 75 70.2 73.4 69.1 71.8 72.6 68.9 79.5 65.7 82.8 62.8 87.1 58.9 87.8 57.1 90.8 56.4 92 54.8 95.8 52.8 99 49.1 104.4 46.5 105.7 43.7 113.4 38 119.1 33.4 121.1 31 120 27.7 120 23.2 121.9 21.4 124.8 21.4 126.3 21.4 128 17.8 130.9 14.1 134 10.9 134.9 8.8"/></g></g></svg>
 
